<svg width="1042" height="1181" viewBox="0 0 1042 1181" fill="none" xmlns="http://www.w3.org/2000/svg">
<path d="M804.501 759.446L800.001 679.946L729.501 673.446L768.001 773.446L804.501 759.446Z" fill="#FB2C36"/>
<path d="M578.501 1066.45C715.701 1048.05 767.001 934.446 775.501 879.946C832.301 944.746 787.834 1018.28 758.5 1046.95C817 1060.45 831.501 1086.95 832.501 1111.95C833.301 1131.95 764.167 1140.28 729.501 1141.95C704.001 1156.95 594.501 1123.45 586.501 1118.95C580.101 1115.35 578.501 1082.45 578.501 1066.45Z" fill="#FB2C36"/>
<path d="M804.501 759.446L800.001 679.946L729.501 673.446L768.001 773.446L804.501 759.446Z" stroke="#FB2C36"/>
<path d="M578.501 1066.45C715.701 1048.05 767.001 934.446 775.501 879.946C832.301 944.746 787.834 1018.28 758.5 1046.95C817 1060.45 831.501 1086.95 832.501 1111.95C833.301 1131.95 764.167 1140.28 729.501 1141.95C704.001 1156.95 594.501 1123.45 586.501 1118.95C580.101 1115.35 578.501 1082.45 578.501 1066.45Z" stroke="#FB2C36"/>
<g opacity="0.4">
<path d="M804.501 760.446L800.001 680.946L729.501 674.446L768.001 774.446L804.501 760.446Z" fill="#9F0712"/>
<path d="M578.501 1067.45C715.701 1049.05 767.001 935.446 775.501 880.946C832.301 945.746 787.834 1019.28 758.5 1047.95C817 1061.45 831.501 1087.95 832.501 1112.95C833.301 1132.95 764.167 1141.28 729.501 1142.95C704.001 1157.95 594.501 1124.45 586.501 1119.95C580.101 1116.35 578.501 1083.45 578.501 1067.45Z" fill="#9F0712"/>
<path d="M804.501 760.446L800.001 680.946L729.501 674.446L768.001 774.446L804.501 760.446Z" stroke="#9F0712"/>
<path d="M578.501 1067.45C715.701 1049.05 767.001 935.446 775.501 880.946C832.301 945.746 787.834 1019.28 758.5 1047.95C817 1061.45 831.501 1087.95 832.501 1112.95C833.301 1132.95 764.167 1141.28 729.501 1142.95C704.001 1157.95 594.501 1124.45 586.501 1119.95C580.101 1116.35 578.501 1083.45 578.501 1067.45Z" stroke="#9F0712"/>
</g>
<rect x="-9.99943" y="11.9169" width="205.793" height="373.312" rx="49" transform="matrix(-0.996195 0.0871557 0.0871557 0.996195 986.047 507.863)" fill="white" stroke="black" stroke-width="22"/>
<rect x="-0.909039" y="1.08335" width="42.187" height="42.001" rx="9" transform="matrix(-0.996195 0.0871557 0.0871557 0.996195 926.182 647.196)" fill="#FB2C36" stroke="#FFA2A2" stroke-width="2"/>
<rect x="-0.909039" y="1.08335" width="42.187" height="42.001" rx="9" transform="matrix(-0.996195 0.0871557 0.0871557 0.996195 874.274 651.987)" fill="#FB2C36" stroke="#FFA2A2" stroke-width="2"/>
<rect x="-0.909039" y="1.08335" width="42.187" height="42.7449" rx="9" transform="matrix(-0.996195 0.0871557 0.0871557 0.996195 932.132 726.229)" fill="#FF6900" stroke="#FFB86A" stroke-width="2"/>
<rect x="-0.909039" y="1.08335" width="42.187" height="42.7449" rx="9" transform="matrix(-0.996195 0.0871557 0.0871557 0.996195 983.767 721.709)" fill="#FF6900" stroke="#FFB86A" stroke-width="2"/>
<rect x="-0.909039" y="1.08335" width="42.187" height="42.7449" rx="9" transform="matrix(-0.996195 0.0871557 0.0871557 0.996195 937.02 784.02)" fill="#00C950" stroke="#7BF1A8" stroke-width="2"/>
<rect x="-0.909039" y="1.08335" width="42.187" height="59.4181" rx="9" transform="matrix(-0.996195 0.0871557 0.0871557 0.996195 975.861 630.887)" fill="#FDC700" stroke="#FFDF20" stroke-width="2"/>
<rect x="-0.909039" y="1.08335" width="43.1476" height="46.1868" rx="9" transform="matrix(-0.996195 0.0871557 0.0871557 0.996195 971.864 574.185)" fill="#F6339A" stroke="#FDA5D5" stroke-width="2"/>
<rect x="-0.909039" y="1.08335" width="43.1476" height="101.586" rx="9" transform="matrix(-0.996195 0.0871557 0.0871557 0.996195 879.677 713.751)" fill="#F6339A" stroke="#FDA5D5" stroke-width="2"/>
<rect x="-0.909039" y="1.08335" width="43.1476" height="61.1018" rx="9" transform="matrix(-0.996195 0.0871557 0.0871557 0.996195 920.19 578.706)" fill="#2B7FFF" stroke="#8EC5FF" stroke-width="2"/>
<rect x="-0.909039" y="1.08335" width="43.1476" height="61.1018" rx="9" transform="matrix(-0.996195 0.0871557 0.0871557 0.996195 868.515 583.227)" fill="#2B7FFF" stroke="#8EC5FF" stroke-width="2"/>
<path opacity="0.2" d="M976.5 888.5C847.928 876.74 849.5 890 825.5 850L842.619 899.5L976.5 888.5Z" fill="black" stroke="black"/>
<circle cx="878.581" cy="558.84" r="5.5" transform="rotate(-5 878.581 558.84)" fill="black"/>
<rect x="889.558" y="552.359" width="30" height="11" rx="5.5" transform="rotate(-5 889.558 552.359)" fill="black"/>
<path d="M448 1083.45C494.207 1064.27 520.482 1041.24 532.826 1016.82C526.673 1036.21 517.532 1053.07 508.5 1065.45C574.5 1079.45 656.334 1047.95 689 1030.45C781 942.446 767.5 871.446 773.5 828.446C778.3 794.046 729.5 669.113 704.5 610.946C752.9 614.146 800.667 593.946 818.5 583.446C828.834 577.446 849.5 555.346 849.5 514.946C849.5 474.546 828.834 449.446 818.5 441.946C896.9 437.146 943.834 416.613 957.5 406.946C976.5 393.78 1007.4 343.546 979 247.946C950.6 152.346 860.167 119.446 818.5 114.946C804.667 92.6128 759.4 42.0462 689 18.4462C618.6 -5.15379 546 28.2795 518.5 47.9462C460.5 25.9462 414.667 29.7795 399 34.4461C336.5 26.9461 238 128.446 228 320.446C220 474.046 299.334 547.779 340 565.446C341.6 640.646 279.334 721.113 248 751.946C185.601 750.346 134.334 702.946 116.5 679.446C41.3005 569.846 14.5005 611.446 10.5005 645.946C30.9005 957.946 202 1043.95 285 1047.95C249 1118.35 287 1147.95 310.5 1153.95L375 1169.45L528 1153.95C548.4 1095.95 483.167 1082.78 448 1083.45Z" fill="#FB2C36" stroke="#FB2C36"/>
<path d="M599 439.446L674 452.946C666.667 464.113 648.1 487.846 632.5 493.446C616.9 499.046 603.667 459.78 599 439.446Z" fill="white"/>
<path d="M858.5 439.446L921.5 427.446C921.5 444.613 915.3 479.146 890.5 479.946C865.7 480.746 858.834 453.279 858.5 439.446Z" fill="white"/>
<path d="M599 439.446L674 452.946C666.667 464.113 648.1 487.846 632.5 493.446C616.9 499.046 603.667 459.78 599 439.446Z" stroke="white"/>
<path d="M858.5 439.446L921.5 427.446C921.5 444.613 915.3 479.146 890.5 479.946C865.7 480.746 858.834 453.279 858.5 439.446Z" stroke="white"/>
<path d="M518.5 581.446L705 615.946C891.8 996.346 646.167 1077.11 500 1069.95C501.834 1006.28 505.5 879.346 505.5 880.946C505.5 882.546 514.167 800.613 518.5 759.446C530.9 752.646 523.667 637.946 518.5 581.446Z" fill="#FFD230" stroke="#FFD230"/>
<path d="M457.5 843.446C518.167 891.946 603.1 1007.25 457.5 1080.45V843.446Z" fill="#FB2C36"/>
<path d="M591.5 714.446C539.1 724.446 517 703.613 512.5 691.946C464.834 679.446 380.6 674.446 425 754.446C469.4 834.446 539.5 818.779 569 800.946L591.5 818.446C635.5 839.246 637.5 802.113 633 780.946L657 763.446C657 742.946 643.9 704.446 591.5 714.446Z" fill="#FB2C36"/>
<path d="M457.5 843.446C518.167 891.946 603.1 1007.25 457.5 1080.45V843.446Z" stroke="#FB2C36"/>
<path d="M591.5 714.446C539.1 724.446 517 703.613 512.5 691.946C464.834 679.446 380.6 674.446 425 754.446C469.4 834.446 539.5 818.779 569 800.946L591.5 818.446C635.5 839.246 637.5 802.113 633 780.946L657 763.446C657 742.946 643.9 704.446 591.5 714.446Z" stroke="#FB2C36"/>
<path opacity="0.7" d="M312 1026.45C292 1006.85 258.334 947.613 244 920.446C233.6 974.846 263.667 1021.11 280 1037.45C284.167 1037.45 288.5 1050.25 272.5 1101.45C256.5 1152.65 347.5 1162.78 395 1161.45C315.8 1140.25 303.667 1112.61 307.5 1101.45C307.167 1089.28 308.3 1062.55 315.5 1052.95C322.7 1043.35 316.167 1031.28 312 1026.45Z" fill="#9F0712" stroke="#9F0712"/>
<path opacity="0.7" d="M429 751.446C469.4 794.246 532.5 795.613 559 790.946V798.446C493 828.446 444.834 779.613 429 751.446Z" fill="#9F0712" stroke="#9F0712"/>
<path opacity="0.5" d="M597.001 735.946C621.001 731.946 639.001 747.28 645.001 755.446C648.201 735.846 626.001 722.28 614.501 717.946L543.001 711.446L494.501 679.446C505.301 718.646 526.212 733.549 535.001 735.946C546.001 738.946 573.001 739.946 597.001 735.946Z" fill="#FFA2A2" stroke="#FFA2A2"/>
<path opacity="0.5" d="M441.5 841.446C476.5 877.946 530.3 944.046 499.5 1052.45C538.834 1011.45 582.3 911.846 441.5 841.446Z" fill="#FFA2A2" stroke="#FFA2A2"/>
<path opacity="0.7" d="M20.0004 655.446C54.7137 858.946 177.834 923.78 234 929.446L274 1046.45C50.4004 985.246 10.0004 764.946 20.0004 655.446Z" fill="#9F0712" stroke="#9F0712"/>
<path opacity="0.7" d="M77.0004 896.946C122.2 951.746 206.167 985.113 242.5 994.946L271.5 1043.95C236.667 1039.45 149 1003.75 77.0004 896.946Z" fill="#FFD230" stroke="#FFD230"/>
<path opacity="0.7" d="M77.0004 896.946C122.2 951.746 206.167 985.113 242.5 994.946L271.5 1043.95C236.667 1039.45 149 1003.75 77.0004 896.946Z" fill="#FF8904" stroke="#FF8904"/>
<path opacity="0.5" d="M73.5004 667.446C132.7 764.646 198.167 770.279 223.5 760.946C121.5 719.946 94.5004 648.446 66.0004 620.446C43.2004 598.046 34.8338 611.113 33.5004 620.446C49.1004 632.846 66.6671 656.946 73.5004 667.446Z" fill="#FFA2A2" stroke="#FFA2A2"/>
<path opacity="0.5" d="M269 174.946C353.4 9.34612 495.167 55.2795 555.5 98.9461C574.7 109.346 571.167 95.2795 567 86.9461C389.8 -40.6539 288.167 89.1128 259.5 169.946L269 174.946Z" fill="#FFA2A2" stroke="#FFA2A2"/>
<path opacity="0.5" d="M552 59.4462C678.4 13.0462 757 71.4462 780.5 106.446H806C720 -14.7539 586.167 14.9462 530 44.9462L552 59.4462Z" fill="#FFA2A2" stroke="#FFA2A2"/>
<path opacity="0.5" d="M661.5 492.946C696.7 491.746 756.5 500.113 782 504.446L756 449.946L678 454.446L661.5 492.946Z" fill="black" stroke="black"/>
<path opacity="0.7" d="M692.5 614.446L703 652.946C702.334 660.946 692.4 676.846 664 674.446C635.6 672.046 563 649.78 526.5 637.946C526.5 637.946 522.416 636.418 522.374 636.404L517.5 576.862L692.5 614.446Z" fill="#FF8904" stroke="#FF8904"/>
<g opacity="0.7">
<path d="M517.5 576.862L521.5 635.946C492.44 626.264 428.874 606.748 410.5 607.946C387.5 609.446 358 619.446 333 647.946L348.5 562.446C300.334 551.446 198.5 451.946 250.5 227.446C245.334 338.613 281.8 562.046 469 566.446L517.5 576.862Z" fill="#9F0712"/>
<path d="M517.5 576.862L521.5 635.946C492.44 626.264 428.874 606.748 410.5 607.946C387.5 609.446 358 619.446 333 647.946L348.5 562.446C300.334 551.446 198.5 451.946 250.5 227.446C245.334 338.613 281.8 562.046 469 566.446L517.5 576.862Z" stroke="#9F0712"/>
</g>
<path opacity="0.5" d="M593.5 991.446C683.9 994.246 740.5 928.279 757.5 894.946C737.9 1051.75 588.667 1070.95 516.5 1060.95L551 987.446C571.4 991.046 587.834 991.613 593.5 991.446Z" fill="#FF8904" stroke="#FF8904"/>
<path opacity="0.5" d="M782.5 139.446C954.5 144.246 973.5 306.779 961.5 387.446H975.5C1027.1 135.046 841 102.613 741.5 117.946C727.1 136.746 737.5 140.113 744.5 139.446H782.5Z" fill="#FFA2A2" stroke="#FFA2A2"/>
<path d="M728.5 1046.95C808.1 1005.75 796.334 932.78 780.5 901.446L785.5 857.446C795.334 868.946 815.001 903.346 815.001 948.946C815.001 994.546 790 1029.28 777.5 1040.95C799.5 1046.9 819.334 1061.43 826.501 1067.95C832.667 1072.11 844.801 1086.25 844.001 1109.45C843.201 1132.65 813.667 1139.45 799.001 1139.95C791.001 1153.95 756.334 1152.78 740.001 1150.45C731.001 1154.45 700.901 1160.05 652.501 1150.45C592.001 1138.45 580.501 1133.95 574.501 1122.45C569.701 1113.25 567.501 1088.28 567.001 1076.95H591.001C593.401 1104.55 597.001 1112.45 598.501 1112.95C608.501 1115.75 618.001 1118.11 621.501 1118.95C648.701 1130.15 697.834 1133.61 719.001 1133.95C726.001 1133.78 734.601 1128.65 713.001 1109.45C691.401 1090.25 704.001 1088.78 713.001 1090.45C740.601 1101.25 749.167 1121.61 750.001 1130.45H763.001C773.401 1131.25 779 1127.78 780.5 1125.95C783.334 1123.61 784.501 1114.05 766.501 1094.45C748.501 1074.85 759.001 1074.61 766.501 1076.95C792.501 1086.15 801.334 1108.78 802.501 1118.95C825.701 1118.95 820.501 1099.95 815.001 1090.45C806.167 1078.78 778.801 1056.35 740.001 1059.95C701.201 1063.55 716.167 1052.78 728.5 1046.95Z" fill="black" stroke="black"/>
<path d="M527.501 973.946C530.301 914.346 476.001 865.113 448.501 847.946C422.101 828.746 445.167 830.28 460 833.446C495.6 851.846 522.834 885.446 532 899.946C539.5 911.946 556 959.446 550.5 994.946C545 1030.45 537.5 1037.95 521 1057.95C507.8 1073.95 508.834 1082.61 511 1084.95C523.5 1090.95 548.5 1109.95 548.5 1137.95C548.5 1172.95 512 1168.95 500 1168.95C490.4 1168.95 489.334 1170.28 490 1170.95C476.5 1184.45 443.5 1179.95 436.5 1176.95C430.9 1174.55 425.834 1174.28 424 1174.45C418 1181.95 395.5 1179.95 380.5 1179.95C319.7 1171.55 284.834 1156.11 275 1149.45C267.834 1144.11 254 1128.45 256 1108.45C258 1088.45 263.834 1071.78 266.5 1065.95C270.5 1063.28 275.2 1053.25 262 1034.45C248.8 1015.65 237.5 989.28 233.5 978.446C229.1 963.646 229.334 934.946 230 922.446C238 903.646 243 912.946 244.5 919.946C245.167 928.946 247.9 952.146 253.5 972.946C260.5 998.946 284.5 1021.95 294 1034.45C301.6 1044.45 298.5 1054.28 296 1057.95C291.167 1066.28 283.7 1084.95 281.5 1095.95C275.5 1125.95 294.834 1134.11 306.5 1137.95C346.1 1155.95 393.667 1156.78 412.5 1154.95C412.5 1143.45 410 1138.95 395.5 1124.95C383.9 1113.75 396 1113.95 403.5 1115.45C423.5 1123.45 432.167 1143.45 434 1152.45C446.5 1156.45 441 1155.45 460 1157.45C475.2 1159.05 479 1151.45 479 1147.45C480.2 1137.45 463.167 1120.28 454.5 1112.95C453.834 1111.78 453.3 1108.85 456.5 1106.45C459.7 1104.05 472.834 1109.78 479 1112.95C495.4 1128.55 498.167 1141.11 497.5 1145.45C498.167 1147.28 503 1150.25 517 1147.45C531 1144.65 524.167 1128.61 519 1120.95C502.2 1094.55 475 1089.61 463.5 1090.45C425 1093.61 359.1 1097.45 403.5 1087.45C447.9 1077.45 472.334 1067.28 479 1063.45C494 1058.45 524.701 1033.55 527.501 973.946Z" fill="black" stroke="black"/>
<path d="M202.5 730.946C220.1 737.746 238.5 739.446 245.5 739.446L229.5 761.446C178.3 758.646 128.5 712.946 110 690.446C105.167 684.113 89.1004 663.946 63.5004 633.946C37.9004 603.946 26.5004 630.78 24.0004 647.946C13.6004 688.123 37.3338 780.353 50.5004 821.446C105.7 963.846 215.5 1025.11 263.5 1037.95C287.5 1051.55 275.833 1059.61 267 1061.95C94 1016.45 33.5 853.946 17 798.446C3.79999 754.046 0.5 676.613 0.5 643.446C2.33334 626.946 13 594.746 41 597.946C76 601.946 97.5 636.946 126.5 671.446C155.5 705.946 180.5 722.446 202.5 730.946Z" fill="black" stroke="black"/>
<path d="M411 168.446C436.2 132.446 476.834 142.446 494 151.446C501 155.116 505.501 142.446 488.001 129.446C470.501 116.446 424.001 118.446 408.001 146.946C395.201 169.746 405.667 169.946 411 168.446Z" fill="black" stroke="black"/>
<path d="M763.5 728.446C752.7 698.046 727 645.78 715.5 623.446C705.5 617.28 686.4 607.746 690 618.946C693.6 630.146 700.834 647.613 704 654.946C757.2 745.346 765.834 828.946 763.5 859.446C745.5 1033.45 596.667 1063.61 524.5 1056.95C494.167 1063.61 445.9 1077.35 495.5 1078.95C545.1 1080.55 581.167 1078.28 593 1076.95C758 1041.45 785.5 912.446 786 859.446C786.5 806.446 777 766.446 763.5 728.446Z" fill="black" stroke="black"/>
<ellipse cx="33" cy="44.5" rx="33" ry="44.5" transform="matrix(-0.99724 0.0742446 0.0742446 0.99724 494.106 169.619)" fill="black"/>
<path d="M891 245.946C891.4 226.746 900.667 222.613 905.5 221.946C915.9 221.946 918.667 234.613 919 241.446C917 263.446 907 270.613 902 270.946C898 271.279 890.6 265.146 891 245.946Z" fill="black" stroke="black"/>
<path d="M770.5 239.446C782.5 229.846 797.667 241.613 804.5 247.946C821.3 267.146 816.834 278.279 812.5 281.446C804.5 289.446 789.5 283.446 777.5 274.446C770 268.821 758.5 249.046 770.5 239.446Z" fill="black" stroke="black"/>
<path d="M754.5 662.946C736.9 662.146 727.834 649.613 725.5 643.446C724 655.613 724.7 680.646 739.5 683.446C754.3 686.246 784 684.613 797 683.446V662.946C790.167 663.28 772.1 663.746 754.5 662.946Z" fill="black"/>
<path d="M769 760.946C783.4 756.546 798.334 749.78 804 746.946C810.667 753.78 821 768.446 809 772.446C797 776.446 781.667 779.113 775.5 779.946L769 760.946Z" fill="black"/>
<path d="M754.5 662.946C736.9 662.146 727.834 649.613 725.5 643.446C724 655.613 724.7 680.646 739.5 683.446C754.3 686.246 784 684.613 797 683.446V662.946C790.167 663.28 772.1 663.746 754.5 662.946Z" stroke="black"/>
<path d="M769 760.946C783.4 756.546 798.334 749.78 804 746.946C810.667 753.78 821 768.446 809 772.446C797 776.446 781.667 779.113 775.5 779.946L769 760.946Z" stroke="black"/>
<path d="M526.264 716.273C507.314 702.359 494.145 681.172 488.116 669.667C488.037 669.517 487.978 669.35 487.941 669.185C483.662 650.054 501.539 661.996 510 672.946C520.722 686.82 530.817 694.965 540.731 702.248C540.909 702.379 541.109 702.48 541.321 702.544C555.726 706.909 570.865 704.439 575.001 703.446C582.334 702.613 600.9 701.446 616.501 703.446C636.001 705.946 668 733.446 668 759.946C668 779.326 655.186 785.141 647.13 785.869C645.979 785.973 645.043 786.924 645.093 788.079L645.5 797.446L645.001 808.946C644.5 818.946 634.6 838.146 613 836.946C586 835.446 574 817.446 572.5 815.446C571.3 813.846 569.334 814.779 568.5 815.446C548.9 828.646 515.667 827.613 501.5 825.446C434.085 810.687 412.949 758.732 410.52 734.148C410.506 734.009 410.509 733.868 410.526 733.729C412.563 716.525 420.011 725.973 422.5 732.446C432.5 770.446 490 804.946 520.5 802.946C551 800.946 557 789.946 562 788.946C565.337 788.279 567.282 788.493 568.125 788.776C568.384 788.862 568.639 788.967 568.903 789.035C573.526 790.223 583.809 798.063 588.5 801.946C613.931 824.198 622.388 811.451 623.48 802.132C623.494 802.007 623.518 801.891 623.551 801.769C624.626 797.754 623.186 785.889 609 768.946C594.749 751.924 607.727 753.413 616.236 756.354C616.413 756.415 616.585 756.506 616.738 756.615C641.728 774.386 645.998 764.924 645.001 757.946C641.827 739.3 629.702 732.229 621.698 727.561L621.5 727.446C615.5 723.946 606.201 719.946 575.001 723.946C544.353 727.875 530.173 720.869 526.679 716.67C526.555 716.521 526.421 716.388 526.264 716.273Z" fill="black" stroke="black"/>
<path d="M437 41.4462C494.2 40.6462 544.5 71.4462 562.5 86.9462C593.3 98.9462 571.334 74.6128 556.5 60.9461C552.222 57.3527 545.931 52.8302 538 48.0857C670.4 -15.0026 767.167 58.3725 799 102.946H827C722.2 -40.2539 572 -2.66475 510 34.0298C489.403 25.4682 464.203 18.6419 437 18.4461C381.4 18.0462 336.167 44.2795 320.5 57.4462C288.5 79.7795 223 163.546 217 319.946C211 476.346 280.167 546.113 318 563.446C348 581.446 394.512 576.952 362 561.446C329.5 545.946 316 532.613 312.5 529.446C285 512.446 232.1 444.946 240.5 310.946C248.9 176.946 303 102.113 329 81.4462C341.167 68.4462 379.8 42.2462 437 41.4462Z" fill="black"/>
<path d="M538 48.0857C545.931 52.8302 552.222 57.3527 556.5 60.9461C571.334 74.6128 593.3 98.9462 562.5 86.9462C544.5 71.4462 494.2 40.6462 437 41.4462C379.8 42.2462 341.167 68.4462 329 81.4462C303 102.113 248.9 176.946 240.5 310.946C232.1 444.946 285 512.446 312.5 529.446C316 532.613 329.5 545.946 362 561.446C394.512 576.952 348 581.446 318 563.446C280.167 546.113 211 476.346 217 319.946C223 163.546 288.5 79.7795 320.5 57.4462C336.167 44.2795 381.4 18.0461 437 18.4461C464.203 18.6419 489.403 25.4682 510 34.0298M538 48.0857C670.4 -15.0026 767.167 58.3725 799 102.946H827C722.2 -40.2539 572 -2.66475 510 34.0298M538 48.0857C530.151 43.3895 520.696 38.4757 510 34.0298M538 48.0857L510 34.0298" stroke="black"/>
<path fill-rule="evenodd" clip-rule="evenodd" d="M1000 308.446C991.6 160.046 881.5 109.946 827.5 103.446C818.5 102.779 795.3 102.246 774.5 105.446C753.7 108.646 742.5 115.779 739.5 118.946C735.667 123.779 732.1 132.446 748.5 128.446C764.9 124.446 782.334 123.779 789 123.946C898.6 127.546 949 199.779 960.5 235.446C973.667 265.075 993.4 335.156 967 378.446C941.614 420.075 871.544 426.061 819.85 430.478C804.347 431.802 790.497 432.985 780 434.946C743.6 441.746 693.5 440.78 673 439.446C594.6 425.046 563.334 405.446 557.5 397.446C580.3 381.446 563 378.113 551.5 378.446C532.3 384.046 522.167 399.113 519.5 405.946C515.9 426.746 527.334 423.613 533.5 419.446C598.3 527.446 698.5 549.113 740.5 546.446C744.334 546.78 759.4 544.846 789 534.446C817.378 524.476 816.344 497.446 815.9 485.841C815.765 482.315 815.685 480.213 816.5 480.446C820 481.446 841.067 497.316 836 526.446C830.763 556.561 804.699 570.675 786.075 580.76C783.363 582.229 780.809 583.612 778.5 584.946C761.5 592.78 716 602.946 668 594.446C637.96 589.126 603.687 581.75 575.951 575.781C558.168 571.953 543.072 568.704 533.5 566.946C472.192 561.171 470.884 563.29 469.25 565.939C469.045 566.271 468.835 566.612 468.5 566.946C465.5 569.946 498.5 583.946 529 589.446C535.355 590.592 540.689 591.521 545.479 592.355C563.676 595.523 574.001 597.321 602.5 604.446C631.3 611.646 690.167 619.779 716 622.946C874.128 609.365 860.974 525.2 857.764 504.66C857.665 504.027 857.575 503.454 857.5 502.946C855.5 489.346 848 467.28 844.5 457.946C846.5 448.746 849.334 451.78 850.5 454.446C855.7 473.646 870.5 486.28 877 488.446C883.5 490.613 902.9 491.146 910.5 485.946C920 479.446 925.5 468.446 928 460.446C930 454.046 932.5 440.78 933.5 434.946C991.1 420.146 1001.83 344.446 1000 308.446ZM658 463.446C655.167 468.28 646.8 479.546 636 485.946C630.834 484.28 618.2 475.646 609 454.446C608.334 452.113 609.9 448.846 621.5 454.446C626.167 456.113 638.5 459.546 650.5 459.946C653 459.78 658 460.246 658 463.446ZM684 463.446C680.667 472.28 670.2 492.346 655 501.946C713.962 535.802 761.016 524.106 779.821 512.701C781.499 511.683 782.279 509.7 781.793 507.799C775.414 482.888 752.883 467.927 742 463.446C726 466.246 696.667 464.613 684 463.446ZM901.858 441.483C896.437 442.634 888.164 444.39 871 446.946C872.2 462.146 883.5 469.613 889 471.446C900.812 471.446 905.584 453.707 906.775 442.979C906.918 441.689 905.769 440.668 904.498 440.929C903.685 441.095 902.816 441.28 901.858 441.483Z" fill="black" stroke="black"/>
<path d="M246 737.946C301.2 676.746 324.334 599.78 329 568.946L351 574.446C343 620.046 335 641.446 332 646.446C324.167 663.946 302.8 706.046 280 734.446C257.2 762.846 236.167 793.946 228.5 805.946C204.1 833.946 206 811.613 210 796.946C217.2 780.146 237 750.613 246 737.946Z" fill="black" stroke="black"/>
</svg>
