<svg width="374" height="322" viewBox="0 0 374 322" fill="none" xmlns="http://www.w3.org/2000/svg">
<path d="M117.619 321.271L118.363 321.271C118.115 321.273 117.867 321.273 117.618 321.271L116.874 321.259C117.122 321.265 117.371 321.268 117.619 321.271ZM115.387 321.2L116.13 321.234C115.882 321.225 115.634 321.214 115.386 321.2L114.643 321.153C114.891 321.171 115.139 321.187 115.387 321.2ZM110.203 320.635C110.694 320.715 111.186 320.788 111.679 320.854L112.418 320.945C111.924 320.888 111.431 320.823 110.939 320.75L110.203 320.635ZM107.274 320.061L108.003 320.221C107.759 320.169 107.516 320.116 107.273 320.061L106.547 319.888C106.789 319.947 107.032 320.005 107.274 320.061ZM104.381 319.303L105.1 319.51C104.859 319.443 104.619 319.373 104.38 319.303L103.664 319.085C103.902 319.16 104.141 319.232 104.381 319.303ZM133.748 318.645C133.591 318.699 133.434 318.751 133.276 318.804C133.448 318.746 133.62 318.688 133.791 318.629L133.748 318.645ZM102.239 318.615L101.532 318.362C101.523 318.359 101.515 318.355 101.506 318.352C101.75 318.441 101.994 318.53 102.239 318.615ZM98.8496 317.287C98.8133 317.271 98.7765 317.256 98.7402 317.24L98.0518 316.931C98.3166 317.052 98.5829 317.171 98.8496 317.287ZM139.304 316.318C138.852 316.543 138.396 316.76 137.938 316.969C138.167 316.864 138.396 316.757 138.623 316.648L139.304 316.318ZM91.4277 313.208L92.0664 313.632C91.8527 313.493 91.6395 313.352 91.4277 313.209L90.7939 312.773C91.004 312.92 91.2157 313.065 91.4277 313.208ZM147.07 311.455C146.686 311.753 146.296 312.043 145.904 312.327C146.088 312.194 146.272 312.059 146.454 311.923L147.07 311.455ZM88.9307 311.399L89.5459 311.869C89.34 311.715 89.1345 311.559 88.9307 311.4L88.3223 310.919C88.5239 311.081 88.7269 311.241 88.9307 311.399ZM87.125 309.923L87.7197 310.427C87.5204 310.261 87.322 310.093 87.125 309.924L86.5361 309.408C86.7311 309.582 86.9277 309.753 87.125 309.923ZM148.879 309.981C148.772 310.073 148.663 310.163 148.555 310.254C148.708 310.125 148.861 309.995 149.014 309.864L148.879 309.981ZM85.9551 308.882L85.3809 308.344C85.3444 308.309 85.3089 308.273 85.2725 308.238C85.4987 308.455 85.7255 308.67 85.9551 308.882ZM84.3936 307.375C84.3472 307.328 84.3001 307.281 84.2539 307.234L84.2109 307.189C84.2717 307.251 84.3325 307.313 84.3936 307.375ZM152.593 306.423C152.409 306.62 152.223 306.815 152.036 307.008C152.223 306.815 152.409 306.62 152.593 306.423ZM155.685 302.762C155.774 302.644 155.865 302.527 155.954 302.408L156.441 301.746C156.193 302.09 155.94 302.427 155.685 302.762ZM78.7744 300.519C78.728 300.45 78.6809 300.381 78.6348 300.312L78.5752 300.222C78.6413 300.321 78.7077 300.42 78.7744 300.519ZM139.607 107.95C124.12 123.122 120.871 146.855 131.71 165.631L169.086 230.374L137.52 285.026C128.983 299.804 107.845 300.014 98.9443 285.68L98.5303 284.986L28.001 162.302C21.6217 151.204 25.7733 137.028 37.1309 131.124L205.052 43.8408L139.607 107.95ZM254.562 30.3506C262.122 23.3591 273.045 22.6391 281.294 27.5127C282.126 31.2912 281.606 35.2927 279.74 38.7822L279.479 39.2529L183.523 205.379L153.361 153.132C148.227 144.238 149.766 132.996 157.102 125.81L254.081 30.8096L254.562 30.3506ZM6.32715 174.762L6.01562 174.211C6.00278 174.188 5.99034 174.165 5.97754 174.142C6.09256 174.349 6.20867 174.556 6.32715 174.762ZM4.31641 170.863L4.5791 171.427C4.40105 171.052 4.22794 170.676 4.06055 170.299V170.298C4.14431 170.487 4.22997 170.675 4.31641 170.863ZM2.17871 165.323C2.28116 165.648 2.38728 165.972 2.49707 166.296L2.30469 165.718C2.26199 165.586 2.22007 165.455 2.17871 165.323ZM0.514648 158.115L0.430664 157.525C0.429955 157.52 0.429419 157.515 0.428711 157.51C0.45617 157.712 0.484528 157.913 0.514648 158.115ZM0.274414 156.24C0.235585 155.882 0.199542 155.524 0.168945 155.166V155.165C0.199567 155.523 0.235515 155.882 0.274414 156.24ZM0.0322266 152.944L0.0263672 152.804C0.0223458 152.689 0.0207637 152.575 0.0175781 152.461C0.0221098 152.622 0.0260498 152.783 0.0322266 152.944ZM0 150.784C0.000832455 150.672 0.000312742 150.559 0.00195312 150.446L0.00585938 150.296C0.00294925 150.459 0.00123976 150.621 0 150.784ZM0.302734 145.76C0.214335 146.536 0.14487 147.316 0.0947266 148.097L0.18457 146.926C0.219239 146.536 0.258526 146.147 0.302734 145.759V145.76ZM0.714844 142.931C0.618149 143.484 0.527578 144.039 0.450195 144.597L0.625 143.438C0.652818 143.269 0.685161 143.1 0.714844 142.931ZM1.06055 141.14C0.932962 141.734 0.819871 142.332 0.714844 142.931C0.752352 142.716 0.787592 142.5 0.828125 142.286L1.06055 141.14ZM1.60742 138.865L1.31934 139.999C1.42534 139.558 1.53867 139.119 1.65723 138.682C1.64066 138.743 1.62375 138.804 1.60742 138.865ZM2.63379 135.513C2.52108 135.838 2.41332 136.165 2.30762 136.492C2.41332 136.165 2.52098 135.837 2.63379 135.512V135.513ZM23.3975 110.16C23.0379 110.372 22.6821 110.587 22.3301 110.807C22.5059 110.697 22.6826 110.588 22.8604 110.48L23.3975 110.16ZM80.0645 302.337C79.9023 302.119 79.7423 301.899 79.583 301.678L80.0645 302.337ZM79.5264 301.6C79.4343 301.471 79.343 301.342 79.252 301.212C79.343 301.342 79.4343 301.471 79.5264 301.6Z" fill="#1DC97B" fill-opacity="0.4"/>
<path d="M212.983 304.575C213.114 304.724 213.245 304.873 213.377 305.021C213.245 304.873 213.114 304.724 212.983 304.575ZM287.138 300.858C286.896 301.196 286.653 301.531 286.405 301.86C286.653 301.531 286.896 301.196 287.138 300.858ZM289.211 297.712C289.093 297.907 288.973 298.101 288.853 298.294C288.972 298.103 289.09 297.911 289.207 297.718L289.211 297.712ZM254.562 30.3506C264.773 20.9067 281.124 22.9026 288.728 34.6758L346.814 124.617C351.266 131.509 351.602 140.258 347.745 147.452L347.358 148.144L268.036 284.407C259.34 299.345 237.746 299.307 229.104 284.337L153.361 153.132C148.227 144.238 149.766 132.996 157.102 125.81L254.081 30.8096L254.562 30.3506ZM129.427 161.146C129.697 161.754 129.981 162.359 130.278 162.959C130.13 162.659 129.984 162.358 129.842 162.056L129.427 161.146ZM370.146 158.564C369.898 159.044 369.643 159.521 369.379 159.994C369.643 159.521 369.898 159.044 370.146 158.564ZM125.619 146.988C125.654 147.309 125.692 147.63 125.733 147.951L125.866 148.913C125.818 148.593 125.774 148.272 125.732 147.951L125.619 146.988ZM125.347 142.164C125.348 142.486 125.354 142.808 125.362 143.13L125.396 144.095C125.382 143.773 125.37 143.451 125.361 143.13L125.347 142.164ZM239.148 10.6133C238.974 10.7613 238.801 10.9115 238.628 11.0625L238.111 11.5195C238.282 11.3657 238.454 11.2133 238.627 11.0625L239.148 10.6133ZM246.301 5.59277C246.109 5.70222 245.919 5.81339 245.729 5.92578L245.158 6.26758C245.347 6.15217 245.537 6.03824 245.728 5.92578L246.301 5.59277ZM252.804 2.50879C252.602 2.58621 252.4 2.66577 252.199 2.74609L251.597 2.99121C251.797 2.90808 251.997 2.82632 252.198 2.74609L252.804 2.50879ZM262.103 0C261.892 0.0342374 261.682 0.0693575 261.473 0.106445L260.843 0.222656C261.052 0.182692 261.262 0.143553 261.472 0.106445L262.103 0ZM283.025 305.866C282.925 305.973 282.824 306.08 282.723 306.186C282.824 306.08 282.925 305.973 283.025 305.866ZM285.055 303.568C284.996 303.639 284.938 303.711 284.879 303.781C284.938 303.711 284.996 303.639 285.055 303.568ZM211.677 303.018C211.555 302.866 211.434 302.713 211.313 302.559C211.434 302.713 211.555 302.866 211.677 303.018ZM287.529 300.303C287.478 300.377 287.428 300.452 287.376 300.525C287.428 300.452 287.478 300.377 287.529 300.303ZM372.437 153.376C372.361 153.58 372.283 153.783 372.204 153.985C372.283 153.783 372.361 153.58 372.437 153.376ZM372.147 154.134C372.073 154.324 371.996 154.514 371.919 154.703C371.996 154.514 372.073 154.324 372.147 154.134ZM371.847 154.882C371.755 155.105 371.662 155.327 371.566 155.549C371.662 155.327 371.755 155.105 371.847 154.882ZM371.534 155.624C371.446 155.829 371.355 156.033 371.264 156.237C371.355 156.033 371.446 155.829 371.534 155.624ZM373.349 122.969C373.406 123.157 373.462 123.345 373.517 123.533C373.462 123.345 373.406 123.157 373.349 122.969ZM372.279 119.854C372.358 120.061 372.436 120.267 372.512 120.474C372.436 120.267 372.358 120.061 372.279 119.854ZM371.424 117.771C371.491 117.923 371.558 118.075 371.623 118.228C371.558 118.075 371.491 117.923 371.424 117.771ZM371.699 118.41C371.779 118.6 371.859 118.79 371.937 118.981C371.859 118.79 371.779 118.6 371.699 118.41ZM370.749 116.297C370.824 116.454 370.899 116.61 370.973 116.768C370.899 116.61 370.824 116.454 370.749 116.297Z" fill="#0AC272"/>
</svg>
